<?xml version="1.0"?>
<svg xmlns="http://www.w3.org/2000/svg" xmlns:xlink="http://www.w3.org/1999/xlink" viewBox="0 0 512 512" width="512" height="512"><defs><linearGradient id="linear-gradient" x1="90.343" y1="509.657" x2="421.657" y2="178.343" gradientUnits="userSpaceOnUse"><stop offset="0" stop-color="#fff"/><stop offset="0.03" stop-color="#41dfd0"/><stop offset="1" stop-color="#ee83ef"/></linearGradient></defs><g id="gradient"><path d="M72,394.744V488a8,8,0,0,0,8,8H432a8,8,0,0,0,8-8V394.744l28.7-36.906a101.4,101.4,0,0,0,19.7-80.31,72.085,72.085,0,0,0-113.128-45.543l-12.676,9.155a128.5,128.5,0,0,0-79.521-54.209,302.212,302.212,0,0,1-3.006-36.334,23.987,23.987,0,0,0,5.5-42.373A32.015,32.015,0,0,0,264,65.013V48h8a8,8,0,0,0,0-16h-8V24a8,8,0,0,0-16,0v8h-8a8,8,0,0,0,0,16h8V65.013a31.993,31.993,0,0,0-21.571,43.206,23.987,23.987,0,0,0,5.493,42.378,301.967,301.967,0,0,1-3,36.307,127.983,127.983,0,0,0-79.518,54.24l-12.681-9.159A72.085,72.085,0,0,0,23.591,277.528a101.4,101.4,0,0,0,19.7,80.31ZM128,312a16,16,0,1,1-16,16A16.019,16.019,0,0,1,128,312Zm32,16a32.053,32.053,0,0,0-24.238-31.043,67.28,67.28,0,0,1,4.755-9.966,57.228,57.228,0,0,1,21.223-21.045,7.976,7.976,0,0,0,2.811-1.494,58.269,58.269,0,0,1,12.184-4.447,57.207,57.207,0,0,1,30.537.9c.092.032.186.055.28.084a58.076,58.076,0,0,1,13.74,6.407,57.369,57.369,0,0,1,26.624,45.64A32,32,0,0,0,248,374.987V384H156.707l-15.04-27.073A32.037,32.037,0,0,0,160,328Zm56-88a40,40,0,1,1,79.339,7.216,74.694,74.694,0,0,0-13.221,6.68A73.528,73.528,0,0,0,256,282.557,73.528,73.528,0,0,0,229.882,253.9a74.724,74.724,0,0,0-13.208-6.675A40.286,40.286,0,0,1,216,240Zm155.483,46.991a67.385,67.385,0,0,1,4.755,9.966,31.994,31.994,0,0,0-5.9,59.97L355.293,384H264v-9.013a32,32,0,0,0,.084-61.951,57.666,57.666,0,0,1,107.4-26.045ZM384,344a16,16,0,1,1,16-16A16.019,16.019,0,0,1,384,344ZM256,328a16,16,0,1,1-16,16A16.019,16.019,0,0,1,256,328Zm168,72v8H88v-8Zm0,56H88V424H424ZM88,480v-8H424v8ZM384.649,244.956a56.084,56.084,0,0,1,88.018,35.434,85.39,85.39,0,0,1-16.592,67.625L428.088,384H373.6l12.572-22.63c.276-.5.533-1.008.8-1.513a32,32,0,0,0,6.277-62.49,83.222,83.222,0,0,0-7.941-18.438,73.614,73.614,0,0,0-18.46-21.115Zm-37.48,1.983a75.242,75.242,0,0,0-8.132-2.483A73.629,73.629,0,0,0,311.919,243q.079-1.5.081-3a55.654,55.654,0,0,0-8.282-29.271A112.406,112.406,0,0,1,347.169,246.939ZM232,128a8.009,8.009,0,0,1,8-8h32a8,8,0,0,1,0,16H240A8.009,8.009,0,0,1,232,128Zm24-48a16.019,16.019,0,0,1,16,16,15.854,15.854,0,0,1-2.152,8h-27.7A15.828,15.828,0,0,1,240,96,16.019,16.019,0,0,1,256,80Zm-8.1,72h16.2a318.484,318.484,0,0,0,2.5,32.459c-3.509-.293-7.041-.459-10.6-.459s-7.09.165-10.6.455A318.1,318.1,0,0,0,247.9,152ZM208.34,210.639A55.656,55.656,0,0,0,200,240c0,1,.035,2,.088,3a73.645,73.645,0,0,0-27.125,1.46,75.233,75.233,0,0,0-8.128,2.481A112.03,112.03,0,0,1,208.34,210.639ZM39.333,280.39a56.085,56.085,0,0,1,88.019-35.434l15.223,10.994a8.036,8.036,0,0,0,1.095,3.032A73.717,73.717,0,0,0,126.7,278.93a83.248,83.248,0,0,0-7.941,18.437,32,32,0,0,0,6.269,62.49c.268.506.531,1.015.808,1.513L138.4,384H83.912L55.925,348.015A85.39,85.39,0,0,1,39.333,280.39Z" style="fill:url(#linear-gradient)"/></g></svg>
