<?xml version="1.0" encoding="iso-8859-1"?>
<!-- Generator: Adobe Illustrator 19.0.0, SVG Export Plug-In . SVG Version: 6.00 Build 0)  -->
<svg version="1.1" id="Capa_1" xmlns="http://www.w3.org/2000/svg" xmlns:xlink="http://www.w3.org/1999/xlink" x="0px" y="0px"
	 viewBox="0 0 512 512" style="enable-background:new 0 0 512 512;" xml:space="preserve">
<linearGradient id="SVGID_1_" gradientUnits="userSpaceOnUse" x1="0" y1="257.998" x2="512" y2="257.998" gradientTransform="matrix(1 0 0 -1 0 513.998)">
	<stop  offset="0" style="stop-color:#80D8FF"/>
	<stop  offset="1" style="stop-color:#EA80FC"/>
</linearGradient>
<path style="fill:url(#SVGID_1_);" d="M416,436H96c-8.805,0-16.574-5.758-19.135-14.183l-76-250
	c-2.313-7.61,0.103-15.868,6.153-21.031c6.05-5.163,14.584-6.25,21.737-2.769l109.444,53.28L240.891,82.896
	C244.69,78.516,250.202,76,256,76c5.798,0,11.311,2.516,15.109,6.896l102.692,118.402l109.444-53.28
	c7.153-3.482,15.688-2.394,21.736,2.769c6.051,5.163,8.467,13.421,6.153,21.031l-76,250C432.574,430.242,424.804,436,416,436z
	 M110.823,396h290.352l58.353-191.948l-82.022,39.931c-8.141,3.963-17.93,1.963-23.862-4.878L256,126.525l-97.643,112.58
	c-5.933,6.84-15.719,8.842-23.863,4.878l-82.022-39.931L110.823,396z"/>
<g>
</g>
<g>
</g>
<g>
</g>
<g>
</g>
<g>
</g>
<g>
</g>
<g>
</g>
<g>
</g>
<g>
</g>
<g>
</g>
<g>
</g>
<g>
</g>
<g>
</g>
<g>
</g>
<g>
</g>
</svg>
