<svg id="Gradient" height="512" viewBox="0 0 512 512" width="512" xmlns="http://www.w3.org/2000/svg" xmlns:xlink="http://www.w3.org/1999/xlink"><linearGradient id="linear-gradient" gradientUnits="userSpaceOnUse" x1="256" x2="256" y1="440" y2="72"><stop offset="0" stop-color="#12c2e9"/><stop offset=".5" stop-color="#c471ed"/><stop offset="1" stop-color="#f64f59"/></linearGradient><path d="m493.973 389.323a8 8 0 0 0 1.974-6.24l-24-208a8 8 0 0 0 -7.947-7.083h-40v-16a48 48 0 0 0 -96 0h-16v-24a56 56 0 0 0 -112 0v24h-16a48 48 0 0 0 -96 0v16h-40a8 8 0 0 0 -7.947 7.083l-24 208a8 8 0 0 0 7.947 8.917h98.642l-3.609 39.268a8 8 0 0 0 7.967 8.732h257a8 8 0 0 0 7.969-8.7l-3.469-39.3h99.5a8 8 0 0 0 5.973-2.677zm-117.973-269.323a32.036 32.036 0 0 1 32 32v16h-39.263l-.768-8.7a8 8 0 0 0 -7.969-7.3h-16a32.036 32.036 0 0 1 32-32zm-160 8a40 40 0 0 1 80 0v24h-80zm-112 24a32 32 0 0 1 64 0h-16a8 8 0 0 0 -7.967 7.268l-.8 8.732h-39.233zm20.113 224h-91.136l22.153-192h32.87v16a8 8 0 0 0 16 0v-16h37.76zm11.656 48 23.531-256h40.7v32a8 8 0 0 0 16 0v-32h80v32a8 8 0 0 0 16 0v-32h40.675l22.588 256zm251.321-48-16.942-192h37.852v16a8 8 0 0 0 16 0v-16h32.87l22.153 192zm-171.09-144a8 8 0 1 1 -8-8 8 8 0 0 1 8 8zm-112 0a8 8 0 1 1 -8-8 8 8 0 0 1 8 8zm208 0a8 8 0 1 1 -8-8 8 8 0 0 1 8 8zm112 0a8 8 0 1 1 -8-8 8 8 0 0 1 8 8z" fill="url(#linear-gradient)"/></svg>